<?xml version="1.0" encoding="utf-8"?>
<!-- Generator: Adobe Illustrator 27.2.0, SVG Export Plug-In . SVG Version: 6.00 Build 0)  -->
<svg version="1.1" id="Layer_1" xmlns="http://www.w3.org/2000/svg" xmlns:xlink="http://www.w3.org/1999/xlink" x="0px" y="0px"
	 viewBox="0 0 1920 1080" style="enable-background:new 0 0 1920 1080;" xml:space="preserve">
<style type="text/css">
	.st0{fill:#FFFFFF;}
</style>
<g>
	<polygon class="st0" points="133.71,891.07 165.64,913.31 200.48,899.71 191.02,936.83 215.84,967.2 178.07,967.9 158.57,1000.27 
		144.69,963.58 107.81,953.21 137,929.84 	"/>
	<polygon class="st0" points="334.32,305.64 373.09,308.93 396.46,279.74 406.83,316.62 443.52,330.51 411.16,350 410.45,387.78 
		380.08,362.95 342.96,372.41 356.56,337.57 	"/>
	<polygon class="st0" points="798.2,737.54 775.96,769.47 789.55,804.31 752.43,794.85 722.06,819.67 721.36,781.9 689,762.4 
		725.68,748.52 736.05,711.64 759.43,740.83 	"/>
	<polygon class="st0" points="1430.65,900.11 1467.24,913.33 1497.38,891.18 1497.85,929.48 1529.69,952.39 1493.38,962.85 
		1482.93,999.15 1460.02,967.31 1421.72,966.84 1443.86,936.71 	"/>
	<polygon class="st0" points="1245.59,558.21 1223.36,590.14 1236.95,624.97 1199.83,615.52 1169.46,640.34 1168.76,602.57 
		1136.4,583.07 1173.08,569.18 1183.45,532.31 1206.82,561.5 	"/>
	<polygon class="st0" points="1624.86,104.49 1656.79,126.73 1691.63,113.14 1682.17,150.26 1706.99,180.63 1669.22,181.33 
		1649.72,213.69 1635.84,177.01 1598.96,166.64 1628.15,143.26 	"/>
	<polygon class="st0" points="825.47,113 862.07,126.21 892.2,104.07 892.68,142.37 924.51,165.28 888.21,175.73 877.75,212.04 
		854.85,180.2 816.54,179.73 838.69,149.59 	"/>
	<polygon class="st0" points="134.77,66.93 131.48,105.7 160.67,129.07 123.79,139.44 109.91,176.13 90.41,143.76 52.64,143.06 
		77.46,112.69 68,75.57 102.84,89.17 	"/>
	<polygon class="st0" points="1762.88,508.32 1759.59,547.09 1788.78,570.46 1751.9,580.83 1738.02,617.52 1718.52,585.16 
		1680.75,584.45 1705.57,554.08 1696.11,516.96 1730.95,530.56 	"/>
</g>
<g>
	<path class="st0" d="M151.57,608.89l3.25,11.49c0.1,0.35,0.37,0.62,0.72,0.72l11.49,3.25c1.01,0.29,1.01,1.72,0,2l-11.49,3.25
		c-0.35,0.1-0.62,0.37-0.72,0.72l-3.25,11.49c-0.29,1.01-1.72,1.01-2,0l-3.25-11.49c-0.1-0.35-0.37-0.62-0.72-0.72l-11.49-3.25
		c-1.01-0.29-1.01-1.72,0-2l11.49-3.25c0.35-0.1,0.62-0.37,0.72-0.72l3.25-11.49C149.85,607.88,151.28,607.88,151.57,608.89z"/>
	<path class="st0" d="M665.23,474.65l3.25,11.49c0.1,0.35,0.37,0.62,0.72,0.72l11.49,3.25c1.01,0.29,1.01,1.72,0,2l-11.49,3.25
		c-0.35,0.1-0.62,0.37-0.72,0.72l-3.25,11.49c-0.29,1.01-1.72,1.01-2,0l-3.25-11.49c-0.1-0.35-0.37-0.62-0.72-0.72l-11.49-3.25
		c-1.01-0.29-1.01-1.72,0-2l11.49-3.25c0.35-0.1,0.62-0.37,0.72-0.72l3.25-11.49C663.51,473.64,664.94,473.64,665.23,474.65z"/>
	<path class="st0" d="M474.45,874.72l3.25,11.49c0.1,0.35,0.37,0.62,0.72,0.72l11.49,3.25c1.01,0.29,1.01,1.72,0,2l-11.49,3.25
		c-0.35,0.1-0.62,0.37-0.72,0.72l-3.25,11.49c-0.29,1.01-1.72,1.01-2,0l-3.25-11.49c-0.1-0.35-0.37-0.62-0.72-0.72l-11.49-3.25
		c-1.01-0.29-1.01-1.72,0-2l11.49-3.25c0.35-0.1,0.62-0.37,0.72-0.72l3.25-11.49C472.73,873.71,474.16,873.71,474.45,874.72z"/>
	<path class="st0" d="M1246.59,263.29l3.25,11.49c0.1,0.35,0.37,0.62,0.72,0.72l11.49,3.25c1.01,0.29,1.01,1.72,0,2l-11.49,3.25
		c-0.35,0.1-0.62,0.37-0.72,0.72l-3.25,11.49c-0.29,1.01-1.72,1.01-2,0l-3.25-11.49c-0.1-0.35-0.37-0.62-0.72-0.72l-11.49-3.25
		c-1.01-0.29-1.01-1.72,0-2l11.49-3.25c0.35-0.1,0.62-0.37,0.72-0.72l3.25-11.49C1244.88,262.28,1246.31,262.28,1246.59,263.29z"/>
	<path class="st0" d="M1088.01,874.72l3.25,11.49c0.1,0.35,0.37,0.62,0.72,0.72l11.49,3.25c1.01,0.29,1.01,1.72,0,2l-11.49,3.25
		c-0.35,0.1-0.62,0.37-0.72,0.72l-3.25,11.49c-0.29,1.01-1.72,1.01-2,0l-3.25-11.49c-0.1-0.35-0.37-0.62-0.72-0.72l-11.49-3.25
		c-1.01-0.29-1.01-1.72,0-2l11.49-3.25c0.35-0.1,0.62-0.37,0.72-0.72l3.25-11.49C1086.3,873.71,1087.73,873.71,1088.01,874.72z"/>
	<path class="st0" d="M1806.99,271.77l3.25,11.49c0.1,0.35,0.37,0.62,0.72,0.72l11.49,3.25c1.01,0.29,1.01,1.72,0,2l-11.49,3.25
		c-0.35,0.1-0.62,0.37-0.72,0.72l-3.25,11.49c-0.29,1.01-1.72,1.01-2,0l-3.25-11.49c-0.1-0.35-0.37-0.62-0.72-0.72l-11.49-3.25
		c-1.01-0.29-1.01-1.72,0-2l11.49-3.25c0.35-0.1,0.62-0.37,0.72-0.72l3.25-11.49C1805.28,270.76,1806.71,270.76,1806.99,271.77z"/>
	<path class="st0" d="M444.52,94.73l3.25,11.49c0.1,0.35,0.37,0.62,0.72,0.72l11.49,3.25c1.01,0.29,1.01,1.72,0,2l-11.49,3.25
		c-0.35,0.1-0.62,0.37-0.72,0.72l-3.25,11.49c-0.29,1.01-1.72,1.01-2,0l-3.25-11.49c-0.1-0.35-0.37-0.62-0.72-0.72l-11.49-3.25
		c-1.01-0.29-1.01-1.72,0-2l11.49-3.25c0.35-0.1,0.62-0.37,0.72-0.72l3.25-11.49C442.8,93.72,444.23,93.72,444.52,94.73z"/>
	<path class="st0" d="M1752.98,840.29l3.25,11.49c0.1,0.35,0.37,0.62,0.72,0.72l11.49,3.25c1.01,0.29,1.01,1.72,0,2l-11.49,3.25
		c-0.35,0.1-0.62,0.37-0.72,0.72l-3.25,11.49c-0.29,1.01-1.72,1.01-2,0l-3.25-11.49c-0.1-0.35-0.37-0.62-0.72-0.72l-11.49-3.25
		c-1.01-0.29-1.01-1.72,0-2l11.49-3.25c0.35-0.1,0.62-0.37,0.72-0.72l3.25-11.49C1751.26,839.28,1752.69,839.28,1752.98,840.29z"/>
</g>
<g>
	<circle class="st0" cx="396.42" cy="664.67" r="7.5"/>
	<circle class="st0" cx="932.01" cy="424.74" r="7.5"/>
	<circle class="st0" cx="981.7" cy="711.64" r="7.5"/>
	<circle class="st0" cx="133.35" cy="373.09" r="7.5"/>
	<circle class="st0" cx="1468.2" cy="457.61" r="7.5"/>
	<circle class="st0" cx="1190.99" cy="121.53" r="7.5"/>
	<circle class="st0" cx="757.87" cy="977.26" r="7.5"/>
	<circle class="st0" cx="632.65" cy="296.96" r="7.5"/>
	<circle class="st0" cx="1537.19" cy="758.16" r="7.5"/>
	<circle class="st0" cx="1475.7" cy="183.63" r="7.5"/>
</g>
</svg>
